<svg width="193" height="100" viewBox="0 0 193 100" fill="none" xmlns="http://www.w3.org/2000/svg">
<g clip-path="url(#clip0)">
<path d="M55.9566 43.9779C55.8643 43.9443 55.7635 43.9275 55.6543 43.9023L38.9918 43.3145C38.8826 43.3145 38.7734 43.3313 38.6895 43.348C30.375 46.0439 25 52.5779 25 60.0525C25 69.9207 34.6414 77.9664 46.5 77.9664C58.3586 77.9664 68 69.9207 68 60.0525C68 53.1742 63.3977 47.0266 55.9566 43.9779Z" fill="#E83F5B"/>
<path d="M57.1408 42.6006C57.0148 42.3654 56.7965 42.2059 56.5529 42.1555C51.4803 41.0637 48.5072 42.9953 47.491 43.8604L44.3584 43.1969C43.149 41.7943 39.7813 40.7025 38.6895 40.3834C38.4207 40.3078 38.1016 40.3666 37.8832 40.543C37.6648 40.7193 37.5221 41.0049 37.5389 41.3156C37.5389 41.4416 37.7572 44.0535 38.9918 46.3295C38.11 46.7914 36.8418 47.3709 36.3043 47.5809C35.9096 47.7404 35.6744 48.152 35.7668 48.5803C35.9096 49.2941 36.7158 49.9996 41.4609 50.176C42.6619 52.4352 44.0057 54.0309 45.2234 54.5852C45.3494 54.6356 45.4754 54.6775 45.6014 54.6775C45.7777 54.6775 45.9457 54.6272 46.1053 54.5348C47.5414 53.5858 48.4316 52.2924 48.9523 50.4111C50.5481 50.8059 52.9332 51.2006 54.9908 50.092C55.2932 49.9324 55.4947 49.5881 55.4527 49.2522C55.4359 48.891 55.2008 48.5887 54.8816 48.4627C54.151 48.1772 53.4119 47.6229 52.824 47.1022C54.4029 46.5815 56.3514 45.5233 57.1996 43.3565C57.2836 43.1045 57.2668 42.8358 57.1408 42.6006Z" fill="#4CAF50"/>
<path d="M51.0519 35.7894C49.9937 34.7312 48.1461 34.7312 47.0963 35.7894L46.1977 36.6881C43.7789 39.1068 42.9223 43.0457 42.9223 45.6828V46.615C42.9223 47.1189 43.317 47.5137 43.8209 47.5137H47.407C47.9109 47.5137 48.3057 47.1189 48.3057 46.615V45.6828C48.3057 43.0121 49.2715 41.5424 51.0687 39.7535C52.1437 38.6617 52.1437 36.8896 51.0519 35.7894Z" fill="#388E3C"/>
<path d="M46.5 77.9664C34.6414 77.9664 25 69.9207 25 60.0525C25 52.5779 30.375 46.0439 38.7062 43.3732C39.1682 43.2137 39.6721 43.4824 39.8148 43.9443C39.9576 44.4062 39.7057 44.9101 39.2438 45.0697C31.6852 47.4885 26.7889 53.3674 26.7889 60.0441C26.7889 68.9297 35.624 76.1691 46.5 76.1691C57.376 76.1691 66.2111 68.9297 66.2111 60.0441C66.2111 53.9133 62.0203 48.3787 55.2848 45.6408C54.8229 45.4644 54.6045 44.9269 54.7977 44.4734C54.9908 44.0115 55.5115 43.7932 55.965 43.9863C63.3977 47.0266 68 53.1742 68 60.0525C68 69.9207 58.3586 77.9664 46.5 77.9664Z" fill="#E83F5B"/>
<path d="M34.8514 70.7521C34.675 70.7521 34.4734 70.7017 34.3139 70.5758C30.6773 67.8715 28.5777 64.0334 28.5777 60.0609C28.5777 59.557 28.9725 59.1623 29.4764 59.1623C29.9803 59.1623 30.375 59.557 30.375 60.0609C30.375 63.5211 32.1471 66.7461 35.3889 69.1228C35.7836 69.4084 35.876 69.9795 35.5652 70.3742C35.3889 70.6262 35.1201 70.7521 34.8514 70.7521Z" fill="#C72E48"/>
<path d="M45.6014 54.6775C45.4754 54.6775 45.3494 54.6439 45.2234 54.5852C44.0057 54.0309 42.6619 52.4184 41.4609 50.176C36.7158 49.9996 35.9096 49.2941 35.7668 48.5803C35.6744 48.1688 35.9096 47.7404 36.3043 47.5809C36.8418 47.3457 38.11 46.7914 38.9918 46.3295C37.7572 44.0367 37.5557 41.4164 37.5389 41.3156C37.5221 41.0133 37.648 40.7277 37.8832 40.543C38.1184 40.3582 38.4207 40.3078 38.7063 40.3834C39.8904 40.7445 43.8125 41.9959 44.6187 43.5916C44.8539 44.0367 44.6691 44.5742 44.224 44.7926C43.7789 45.0277 43.2414 44.843 43.023 44.3979C42.7711 43.9359 41.1922 43.1633 39.5461 42.5502C39.7645 43.5748 40.176 44.9857 40.9654 46.0943C41.2342 46.4891 41.1586 47.0434 40.7723 47.3289C40.4111 47.5977 39.8232 47.9168 39.2102 48.2275C39.8904 48.3031 40.8227 48.3703 42.0404 48.4039C42.3848 48.4207 42.6703 48.5971 42.8299 48.9078C43.8545 50.9486 44.8539 52.1496 45.5678 52.7039C46.5336 51.8977 47.0879 50.8059 47.4154 49.1346C47.4658 48.8826 47.6086 48.6727 47.8269 48.5467C48.0453 48.4207 48.2889 48.3871 48.5408 48.4543C49.3807 48.6895 50.8504 49.1178 52.3033 49.0086C51.6902 48.5467 51.1779 48.0428 50.7832 47.6648C50.6236 47.5053 50.4977 47.3793 50.3885 47.2869C50.1197 47.0518 50.0105 46.699 50.1197 46.3547C50.2121 46.0104 50.4977 45.7668 50.8336 45.7248C51.7658 45.582 53.7898 45.1117 54.9404 43.7008C50.59 43.1633 48.4904 45.3301 48.398 45.4393C48.0537 45.8004 47.4994 45.8172 47.1299 45.4896C46.7687 45.1453 46.7352 44.591 47.0795 44.2383C47.2055 44.0955 50.2877 40.8201 56.5361 42.1807C56.7881 42.2311 56.998 42.399 57.124 42.6258C57.25 42.8609 57.2668 43.1297 57.1744 43.3816C56.3346 45.5484 54.3777 46.6066 52.7988 47.1273C53.4119 47.648 54.1426 48.2191 54.8564 48.4879C55.2008 48.5803 55.4275 48.8826 55.4443 49.2438C55.4611 49.6049 55.2848 49.924 54.9824 50.0836C52.9248 51.1754 50.5396 50.7975 48.9439 50.4027C48.4232 52.2672 47.5246 53.5521 46.0969 54.5264C45.9457 54.6271 45.7861 54.6775 45.6014 54.6775Z" fill="#2E6B30"/>
<path d="M47.3986 47.5137C46.8947 47.5137 46.5 47.1189 46.5 46.615V45.6828C46.5 42.4242 47.7514 40.501 49.8006 38.4769C50.1953 38.0822 50.1953 37.4523 49.8006 37.0576C49.4059 36.6629 48.776 36.6629 48.3812 37.0576L47.4826 37.9562C45.5678 39.8543 44.7027 43.2053 44.7027 45.6744V46.6066C44.7027 47.1105 44.308 47.5053 43.8041 47.5053C43.3002 47.5053 42.9055 47.1105 42.9055 46.6066V45.6744C42.9055 43.0373 43.7621 39.1152 46.2061 36.6797L47.1047 35.781C48.1629 34.7228 50.0105 34.7228 51.0604 35.781C52.1521 36.8728 52.1521 38.6449 51.0604 39.7367C49.2715 41.5256 48.2973 42.9953 48.2973 45.666V46.5982C48.2889 47.1189 47.8941 47.5137 47.3986 47.5137Z" fill="#2E6B30"/>
</g>
<path d="M62.8672 78V48.1875C62.8672 45.5625 63.8047 43.3125 65.6797 41.4375C67.5547 39.5625 69.8164 38.625 72.4648 38.625C75.207 38.625 77.4688 39.5391 79.25 41.3672C81.125 39.5391 83.375 38.625 86 38.625C88.8125 38.625 91.0977 39.5391 92.8555 41.3672C94.6367 43.2188 95.5391 45.5039 95.5625 48.2227V75.5391L89.9375 78L89.9727 48.3633C89.9727 47.1914 89.5859 46.1953 88.8125 45.375C88.0391 44.5547 87.125 44.1445 86.0703 44.1445C84.9688 44.1445 84.0312 44.5547 83.2578 45.375C82.4609 46.2188 82.0625 47.2031 82.0625 48.3281V48.3633L82.0273 75.5391L76.4023 78L76.4375 48.3633C76.4375 47.1914 76.0508 46.1953 75.2773 45.375C74.5039 44.5547 73.5898 44.1445 72.5352 44.1445C71.457 44.1445 70.5195 44.5547 69.7227 45.375C68.9258 46.1953 68.5273 47.1914 68.5273 48.3633L68.4922 75.5391L62.8672 78Z" fill="#C72E48"/>
<path d="M100.586 64.6758C100.586 66.832 101.371 68.6367 102.941 70.0898C104.535 71.5664 106.352 72.3047 108.391 72.3047C110.359 72.3047 112.094 71.5664 113.594 70.0898C115.047 68.6602 115.797 66.8555 115.844 64.6758V51.9492C115.797 49.7695 115.047 47.9648 113.594 46.5352C112.094 45.0586 110.219 44.3203 107.969 44.3203C106 44.3203 104.277 45.0586 102.801 46.5352C101.348 47.9883 100.609 49.7227 100.586 51.7383V51.9492V64.6758ZM94.9609 51.8438C94.9609 48.1875 96.25 45.0703 98.8281 42.4922C101.406 39.9141 104.523 38.625 108.18 38.625C111.836 38.625 114.965 39.9141 117.566 42.4922C120.168 45.0703 121.469 48.1875 121.469 51.8438V64.7812C121.469 68.4375 120.168 71.5547 117.566 74.1328C114.965 76.7109 111.836 78 108.18 78C104.523 78 101.406 76.7109 98.8281 74.1328C96.25 71.5547 94.9609 68.4375 94.9609 64.7812V51.8438Z" fill="#C72E48"/>
<path d="M146.461 72.3047C148.43 72.3047 150.152 71.5664 151.629 70.0898C153.105 68.6133 153.844 66.8438 153.844 64.7812C153.844 64.7344 153.844 64.6992 153.844 64.6758V41.0859C153.844 41.0859 155.719 40.2656 159.469 38.625V64.7812C159.469 68.4375 158.18 71.5547 155.602 74.1328C153.023 76.7109 149.906 78 146.25 78C142.594 78 139.465 76.7109 136.863 74.1328C134.262 71.5547 132.961 68.4375 132.961 64.7812V41.0859L138.586 38.625V64.6758C138.633 66.8555 139.383 68.6602 140.836 70.0898C142.336 71.5664 144.211 72.3047 146.461 72.3047Z" fill="#C72E48"/>
<path d="M164.586 64.6758C164.586 66.832 165.371 68.6367 166.941 70.0898C168.535 71.5664 170.352 72.3047 172.391 72.3047C174.359 72.3047 176.094 71.5664 177.594 70.0898C179.047 68.6602 179.797 66.8555 179.844 64.6758V51.9492C179.797 49.7695 179.047 47.9648 177.594 46.5352C176.094 45.0586 174.219 44.3203 171.969 44.3203C170 44.3203 168.277 45.0586 166.801 46.5352C165.348 47.9883 164.609 49.7227 164.586 51.7383V51.9492V64.6758ZM158.961 91.7461V51.8438C158.961 48.1875 160.262 45.0703 162.863 42.4922C165.465 39.9141 168.594 38.625 172.25 38.625C175.906 38.625 179.023 39.9141 181.602 42.4922C184.18 45.0703 185.469 48.1875 185.469 51.8438V64.7812C185.469 68.4375 184.18 71.5547 181.602 74.1328C179.023 76.7109 175.906 78 172.25 78C169.367 78 166.812 77.2031 164.586 75.6094V89.2852L158.961 91.7461Z" fill="#C72E48"/>
<path d="M10.0547 31.207V51.668H20.4609C23.25 51.668 25.6406 50.6719 27.6328 48.6797C29.625 46.6875 30.6211 44.2734 30.6211 41.4375C30.6211 38.6484 29.625 36.2461 27.6328 34.2305C25.6406 32.2148 23.25 31.207 20.4609 31.207H10.0547ZM4.42969 78V27.3398L10.0547 25.582H20.3555C24.6914 25.582 28.3711 27.1289 31.3945 30.2227C34.4648 33.3398 36 37.0781 36 41.4375C36 45.8438 34.4766 49.582 31.4297 52.6523C28.3594 55.7461 24.668 57.293 20.3555 57.293H10.0547V75.5391L4.42969 78Z" fill="#C72E48"/>
<path d="M123.98 76.6641C123.09 75.75 122.645 74.6484 122.645 73.3594C122.645 72.0703 123.09 70.9805 123.98 70.0898C124.871 69.1758 125.949 68.7188 127.215 68.7188C128.48 68.7188 129.559 69.1758 130.449 70.0898C131.34 70.9805 131.785 72.0703 131.785 73.3594C131.785 74.6484 131.34 75.75 130.449 76.6641C129.559 77.5547 128.48 78 127.215 78C125.949 78 124.871 77.5547 123.98 76.6641Z" fill="#4CAF50"/>
<defs>
<clipPath id="clip0">
<rect width="43" height="43" fill="white" transform="translate(25 35)"/>
</clipPath>
</defs>
</svg>
